<svg width="16" height="16" viewBox="0 0 16 16" fill="none" xmlns="http://www.w3.org/2000/svg">
<g clip-path="url(#clip0_370_403)">
<path d="M12.6666 14.6667H3.33331C2.80288 14.6667 2.29417 14.456 1.9191 14.0809C1.54403 13.7058 1.33331 13.1971 1.33331 12.6667V2.00001C1.33331 1.8232 1.40355 1.65363 1.52858 1.52861C1.6536 1.40358 1.82317 1.33334 1.99998 1.33334H11.3333C11.5101 1.33334 11.6797 1.40358 11.8047 1.52861C11.9297 1.65363 12 1.8232 12 2.00001V10H14.6666V12.6667C14.6666 13.1971 14.4559 13.7058 14.0809 14.0809C13.7058 14.456 13.1971 14.6667 12.6666 14.6667ZM12 11.3333V12.6667C12 12.8435 12.0702 13.0131 12.1952 13.1381C12.3203 13.2631 12.4898 13.3333 12.6666 13.3333C12.8435 13.3333 13.013 13.2631 13.1381 13.1381C13.2631 13.0131 13.3333 12.8435 13.3333 12.6667V11.3333H12ZM3.99998 4.66668V6.00001H9.33331V4.66668H3.99998ZM3.99998 7.33334V8.66668H9.33331V7.33334H3.99998ZM3.99998 10V11.3333H7.33331V10H3.99998Z" fill="#D0D5DD"/>
</g>
<defs>
<clipPath id="clip0_370_403">
<rect width="16" height="16" fill="white"/>
</clipPath>
</defs>
</svg>
