<svg width="40" height="40" viewBox="0 0 40 40" fill="none" xmlns="http://www.w3.org/2000/svg">
<g clip-path="url(#clip0_7_3123)">
<path d="M20.0002 36.6667C10.7952 36.6667 3.3335 29.205 3.3335 20C3.3335 10.795 10.7952 3.33334 20.0002 3.33334C29.2052 3.33334 36.6668 10.795 36.6668 20C36.6668 29.205 29.2052 36.6667 20.0002 36.6667ZM11.6668 21.6667C11.6668 23.8768 12.5448 25.9964 14.1076 27.5592C15.6704 29.122 17.79 30 20.0002 30C22.2103 30 24.3299 29.122 25.8927 27.5592C27.4555 25.9964 28.3335 23.8768 28.3335 21.6667H25.0002C25.0002 22.9928 24.4734 24.2645 23.5357 25.2022C22.598 26.1399 21.3262 26.6667 20.0002 26.6667C18.6741 26.6667 17.4023 26.1399 16.4646 25.2022C15.5269 24.2645 15.0002 22.9928 15.0002 21.6667H11.6668ZM13.3335 18.3333C13.9965 18.3333 14.6324 18.07 15.1013 17.6011C15.5701 17.1323 15.8335 16.4964 15.8335 15.8333C15.8335 15.1703 15.5701 14.5344 15.1013 14.0656C14.6324 13.5967 13.9965 13.3333 13.3335 13.3333C12.6705 13.3333 12.0346 13.5967 11.5657 14.0656C11.0969 14.5344 10.8335 15.1703 10.8335 15.8333C10.8335 16.4964 11.0969 17.1323 11.5657 17.6011C12.0346 18.07 12.6705 18.3333 13.3335 18.3333ZM26.6668 18.3333C27.3299 18.3333 27.9658 18.07 28.4346 17.6011C28.9034 17.1323 29.1668 16.4964 29.1668 15.8333C29.1668 15.1703 28.9034 14.5344 28.4346 14.0656C27.9658 13.5967 27.3299 13.3333 26.6668 13.3333C26.0038 13.3333 25.3679 13.5967 24.8991 14.0656C24.4302 14.5344 24.1668 15.1703 24.1668 15.8333C24.1668 16.4964 24.4302 17.1323 24.8991 17.6011C25.3679 18.07 26.0038 18.3333 26.6668 18.3333Z" fill="#0898A0"/>
</g>
<defs>
<clipPath id="clip0_7_3123">
<rect width="40" height="40" fill="white"/>
</clipPath>
</defs>
</svg>
